<svg width="1123" height="1133" viewBox="0 0 1123 1133" fill="none" xmlns="http://www.w3.org/2000/svg">
<path d="M369.468 862.196C493.235 838.58 637.81 749.157 742.065 679.533C766.114 661.893 789.945 643.822 811.473 623.086C821.553 613.366 851.073 582.334 851.073 567.286C851.073 552.167 821.625 521.207 811.473 511.415C789.945 490.679 766.114 472.607 742.065 454.968C637.81 385.344 493.235 295.921 369.468 272.305C353.34 270.073 334.548 269.857 321.229 280.657C291.277 305.137 281.34 376.705 278.101 412.633C271.117 488.88 268.596 568.655 272.124 645.047C274.212 689.399 284.652 823.894 321.228 853.846C334.548 864.644 353.34 864.428 369.468 862.196Z" fill="url(#paint0_linear_295_64)"/>
<path d="M258.011 263.016C265.211 251.496 273.706 241.344 283.786 233.065C363.057 148.897 472.497 96.8424 593.24 96.8424C627.943 96.8424 661.639 101.161 694.039 109.226C604.472 61.8504 510.08 22.6824 417.993 5.40339L414.393 4.75538L410.721 4.25135C340.234 -6.18865 270.537 2.3074 208.762 32.9784C188.603 42.9864 169.235 55.4424 150.947 70.3464C55.1161 148.537 20.484 268.561 9.68302 386.856C-9.10798 592.558 -16.2359 925.196 150.947 1061.71C225.106 1122.19 317.194 1141.7 410.721 1127.8L414.393 1127.3L417.993 1126.58C510.08 1109.37 604.472 1070.2 694.111 1022.76C661.711 1030.89 627.943 1035.21 593.24 1035.21C472.568 1035.21 363.13 983.156 283.858 898.988C283.858 898.988 283.858 898.988 283.786 898.917C276.154 892.652 269.17 884.661 262.978 875.229C233.314 830.23 219.562 752.47 214.163 671.327C207.322 568.008 214.018 459.289 218.915 406.009C222.875 362.231 232.019 304.2 258.011 263.016Z" fill="url(#paint1_linear_295_64)"/>
<path d="M28.62 275.4C19.044 312.192 13.141 350.208 9.68399 388.08C-9.10701 593.782 -16.235 926.42 150.948 1062.93C175.931 1083.31 203.004 1099.08 231.443 1110.45C234.323 1022.04 200.196 909.285 126.9 817.126C12.9959 673.701 132.443 439.559 28.62 275.4Z" fill="white" fill-opacity="0.102"/>
<path d="M257.816 264.569C265.016 253.049 273.51 242.897 283.59 234.618C362.861 150.45 472.302 98.3951 593.045 98.3951C627.748 98.3951 661.444 102.714 693.844 110.779C604.277 63.4031 509.885 24.2351 417.798 6.95613L414.198 6.30812L410.526 5.80409C340.039 -4.63591 270.342 3.86014 208.567 34.5311C188.408 44.5391 169.04 56.9951 150.752 71.8991C54.9206 150.09 20.2886 270.114 9.48757 388.409C2.50457 464.368 -2.82446 557.536 1.63954 651.854C93.8715 706.934 10.9996 916.237 212.743 916.237C243.415 916.237 221.239 849.637 230.023 791.534C221.743 755.534 216.774 714.638 213.966 672.879C207.125 569.56 213.822 460.841 218.719 407.561C222.68 363.784 231.824 305.753 257.816 264.569Z" fill="url(#paint2_linear_295_64)" fill-opacity="0.5"/>
<path d="M379.692 213.265C512.747 238.176 665.386 331.415 776.841 405.935C820.473 437.975 911.336 505.006 911.336 567.286C911.336 582.263 906.08 597.454 897.512 612.43C944.672 537.623 972.247 447.48 972.247 350.281C972.247 343.297 972.103 336.385 971.815 329.473C971.239 316.08 970.231 302.832 968.647 289.801C950.287 274.033 931.279 259.057 912.199 244.729C908.455 241.994 904.712 239.185 900.968 236.45L897.512 233.858L893.912 231.481C832.641 190.585 764.889 147.962 694.041 110.451C661.642 102.386 627.945 98.0674 593.242 98.0674C472.499 98.0674 363.059 150.122 283.788 234.29C311.364 211.824 345.42 208.224 379.692 213.265Z" fill="url(#paint3_linear_295_64)"/>
<path d="M909.388 583.486C907.084 593.134 902.98 602.854 897.508 612.429C944.668 537.622 972.243 447.479 972.243 350.28C972.243 343.296 972.099 336.384 971.811 329.472C971.235 316.079 970.227 302.831 968.643 289.8C957.699 280.44 946.611 271.296 935.307 262.512L940.131 284.04C942.723 296.928 944.883 310.031 946.538 323.352C947.402 330.192 948.122 337.104 948.698 344.087C955.827 429.622 941.067 511.487 909.388 583.486Z" fill="url(#paint4_linear_295_64)" fill-opacity="0.502"/>
<path d="M744.297 138.169C727.737 128.665 710.961 119.449 694.041 110.449C661.642 102.384 627.945 98.0654 593.242 98.0654C472.499 98.0654 363.059 150.12 283.788 234.288C442.043 88.4904 577.186 118.154 744.297 138.169Z" fill="url(#paint5_linear_295_64)" fill-opacity="0.502"/>
<path d="M912.128 889.772C1018.47 810.212 1121.36 710.565 1121.43 567.43C1121.5 449.927 1052.24 361.656 968.648 289.8C970.232 302.831 971.24 316.079 971.816 329.472C972.104 336.384 972.248 343.295 972.248 350.28C972.248 447.479 944.673 537.623 897.513 612.429C893.985 618.478 889.952 624.526 885.49 630.501C855.25 670.821 805.715 707.324 776.843 728.564C744.515 750.164 708.803 773.276 671.004 795.956C578.556 851.395 474.156 903.523 379.693 921.235C345.422 926.274 311.437 922.674 283.862 900.211C363.133 984.379 472.501 1036.43 593.244 1036.43C627.947 1036.43 661.715 1032.11 694.115 1023.98C764.89 986.539 832.714 943.916 893.914 903.02L897.514 900.644L900.97 898.051C904.712 895.316 908.384 892.579 912.128 889.772Z" fill="url(#paint6_linear_295_64)"/>
<path d="M1073.42 730.705C1103.5 683.408 1122.43 629.992 1122.5 568.587C1122.57 451.102 1053.35 362.845 969.802 291C971.385 304.029 972.392 317.275 972.968 330.666C973.256 337.577 973.4 344.487 973.4 351.471C973.4 448.655 945.84 538.785 898.706 613.579C895.18 619.627 891.149 625.674 886.69 631.648C856.466 671.962 806.959 708.459 778.102 729.696C745.792 751.293 710.1 774.401 672.321 797.078C651.885 809.316 630.871 821.41 609.5 833C748.165 826.449 947.638 784.048 1073.42 730.705Z" fill="#1600FF" fill-opacity="0.2"/>
<path d="M1001.71 813.757C1069.97 747.518 1121.95 667.742 1122.02 566.079C1122.09 448.576 1052.83 360.305 969.239 288.449C970.823 301.48 971.831 314.728 972.407 328.121C972.695 335.033 972.839 341.944 972.839 348.929C972.839 433.384 952.031 512.512 915.6 580.911C949.944 646.215 985.727 705.326 994.944 750.613C999.046 770.773 1001.28 792.013 1001.71 813.757Z" fill="url(#paint7_linear_295_64)" fill-opacity="0.5"/>
<path d="M297.252 909.427C292.645 906.763 288.18 903.739 283.86 900.211C363.131 984.379 472.499 1036.43 593.242 1036.43C627.945 1036.43 661.713 1032.11 694.113 1023.98C717.801 1011.45 741.129 998.347 764.024 984.955C707.793 998.131 649.185 1011.09 603.105 1014.19C488.195 1021.82 380.483 981.499 297.252 909.427Z" fill="url(#paint8_linear_295_64)" fill-opacity="0.502"/>
<defs>
<linearGradient id="paint0_linear_295_64" x1="851.073" y1="567.66" x2="270.539" y2="566.84" gradientUnits="userSpaceOnUse">
<stop stop-color="#6152FF"/>
<stop offset="1" stop-color="#730099"/>
</linearGradient>
<linearGradient id="paint1_linear_295_64" x1="-213.143" y1="447.325" x2="686.144" y2="257.27" gradientUnits="userSpaceOnUse">
<stop offset="0.148098" stop-color="#6152FF"/>
<stop offset="0.574725" stop-color="#B300B3"/>
<stop offset="0.870638" stop-color="#7C37E6"/>
<stop offset="1" stop-color="#6A49F7"/>
</linearGradient>
<linearGradient id="paint2_linear_295_64" x1="1710.49" y1="406.436" x2="-44.4914" y2="720.117" gradientUnits="userSpaceOnUse">
<stop offset="0.873925" stop-color="#6152FF"/>
<stop offset="1" stop-color="#B300B3" stop-opacity="0.8"/>
</linearGradient>
<linearGradient id="paint3_linear_295_64" x1="599.384" y1="429.125" x2="848.616" y2="20.8745" gradientUnits="userSpaceOnUse">
<stop offset="0.1225" stop-color="#AAA2F9"/>
<stop offset="0.48" stop-color="#6152FF"/>
<stop offset="0.841364" stop-color="#D24DFF"/>
</linearGradient>
<linearGradient id="paint4_linear_295_64" x1="723.999" y1="561.053" x2="1138" y2="242.553" gradientUnits="userSpaceOnUse">
<stop offset="0.517833" stop-color="#B300B3"/>
<stop offset="0.758917" stop-color="#D24DFF"/>
<stop offset="1" stop-color="#272A88"/>
</linearGradient>
<linearGradient id="paint5_linear_295_64" x1="239.134" y1="14.8288" x2="-82.8465" y2="274.348" gradientUnits="userSpaceOnUse">
<stop offset="0.0144362" stop-color="#B300B3"/>
<stop offset="0.44863" stop-color="#D24DFF"/>
<stop offset="1" stop-color="#272A88"/>
</linearGradient>
<linearGradient id="paint6_linear_295_64" x1="1113.44" y1="555.518" x2="388.064" y2="1078.54" gradientUnits="userSpaceOnUse">
<stop stop-color="#EE20D3"/>
<stop offset="1" stop-color="#6152FF"/>
</linearGradient>
<linearGradient id="paint7_linear_295_64" x1="1449.23" y1="370.764" x2="1080.97" y2="922.989" gradientUnits="userSpaceOnUse">
<stop offset="1" stop-color="#6152FF"/>
</linearGradient>
<linearGradient id="paint8_linear_295_64" x1="283.86" y1="968.323" x2="764.024" y2="968.323" gradientUnits="userSpaceOnUse">
<stop offset="0.0496393" stop-color="#3E0D98"/>
<stop offset="0.491464" stop-color="#B300B3"/>
</linearGradient>
</defs>
</svg>
